<svg width="512" height="512" viewBox="0 0 512 512" fill="none" xmlns="http://www.w3.org/2000/svg">
<rect width="512" height="512" fill="white"/>
<path d="M262.413 143.963C263.314 143.763 264.208 143.562 265.528 143.45C271.913 141.717 278.943 142.48 284.803 145.558C288.012 147.24 290.995 149.767 292.165 153.2C293.334 156.634 292.121 161.018 288.481 163.17C282.514 160.268 275.441 159.73 269.105 161.7C267.604 158.748 264.414 156.734 261.106 156.646C262.788 152.813 262.938 148.328 262.413 143.963Z" fill="black"/>
<path d="M199.777 273.553C275.617 240.624 370.727 272.546 376.8 289.126C383.474 307.333 379.784 319.378 364.504 329.398C355.229 335.483 316.902 346.21 274.179 343.77C238.329 341.731 198.139 335.008 187.062 320.723C181.427 313.468 171.032 286.03 199.777 273.553ZM294.424 299.877C293.799 289.201 260.838 290.221 260.838 298.72C260.838 307.22 294.975 309.253 294.424 299.877Z" fill="black"/>
<path d="M338.797 327.928C340.073 326.502 342.494 326.908 344.201 326.189C356.078 323.106 366.698 315.382 373.065 304.393C374.86 301.397 375.548 299.208 376.824 296.206C377.762 294.836 380.07 295.981 379.569 297.575C373.765 314.425 357.654 328.997 339.573 330.242C338.679 329.923 338.303 328.722 338.797 327.928Z" fill="white"/>
<path d="M180.582 302.675C182.158 302.325 183.234 303.951 184.479 304.658C212.254 324.703 258.693 329.519 292.998 330.889C302.748 331.151 312.511 331.045 322.243 330.413C325.126 330.382 328.091 329.688 330.924 329.925C331.299 330.051 331.612 330.369 331.737 330.738C332.2 331.689 331.387 332.915 330.33 332.877C288.589 336.868 214.099 333.015 180.526 306.465C178.981 305.602 178.6 303.307 180.582 302.675Z" fill="white"/>
<path d="M316.854 287.244C314.559 285.893 316.604 282.391 318.912 283.723C324.341 287.019 326.386 294.555 323.246 300.097C322.089 301.973 319.9 305.013 317.411 304.381C316.498 304.062 316.004 302.849 316.435 301.979C316.785 301.154 317.655 300.685 318.18 299.972C318.756 299.471 319.988 297.339 320.088 296.832C321.514 292.867 319.706 289.183 316.854 287.244Z" fill="white"/>
<path d="M333.519 280.201C349.211 285.348 350.494 307.701 334.989 313.849C333.738 314.112 332.6 312.755 332.969 311.554C333.407 310.215 335.045 309.978 335.996 309.077C342.019 304.793 345.246 293.598 336.847 286.324C336.365 285.68 333.425 284.029 332.988 283.941C332.387 283.741 331.743 283.522 331.424 282.922C330.573 281.571 331.987 279.726 333.519 280.201Z" fill="white"/>
<path d="M242.15 285.117C244.033 285.261 244.214 288.163 242.388 288.594C237.641 289.345 235.539 293.66 236.252 297.106C236.721 298.976 236.659 298.495 237.353 300.008C237.728 300.59 237.816 301.322 237.465 301.935C234.476 305.168 232.343 298.163 232.481 295.893C232.299 290.57 236.784 285.379 242.15 285.117Z" fill="white"/>
<path d="M221.689 278.917C224.491 277.184 226.755 281.387 223.634 282.55C219.982 283.551 216.123 288.492 216.179 292.276C216.135 295.86 216.561 297.104 218.293 300.194C219.4 301.976 216.842 303.959 215.391 302.433C208.786 295.009 212.539 282.281 221.689 278.917Z" fill="white"/>
<path d="M137.231 288.489C140.565 285.199 147.87 281.228 153.836 279.502C157.908 278.288 162.155 277.644 166.401 277.582C167.052 277.575 167.727 277.988 167.94 278.62C168.459 279.658 167.552 280.99 166.401 280.953C157.814 280.903 147.707 284.493 141.115 289.778C140.352 290.29 139.789 291.197 138.782 291.197C137.438 291.229 136.512 289.621 137.231 288.489Z" fill="black"/>
<path d="M410.332 349.824C410.883 349.667 411.452 349.88 411.883 350.218C415.129 352.801 418.175 355.634 421.34 358.317C422.91 359.837 420.477 362.276 418.951 360.706C416.393 358.423 413.835 356.134 411.277 353.852C410.045 352.951 408.037 350.731 410.332 349.824Z" fill="black"/>
<path d="M400.452 353.102C400.833 351.751 402.528 351.783 403.291 352.79C405.512 354.897 407.732 356.999 409.952 359.106C413.755 362.778 417.901 366.23 421.466 370.095C422.154 371.509 420.14 372.86 419.071 371.709C413.323 366.33 407.632 360.889 401.865 355.529C401.184 354.872 400.145 354.191 400.452 353.102Z" fill="black"/>
<path d="M411.752 371.566C413.21 371.979 414.173 373.443 415.305 374.4C417.263 376.513 419.627 378.359 421.365 380.623C422.172 382.267 419.821 383.831 418.582 382.499C415.993 379.841 413.279 377.295 410.789 374.537C409.582 373.511 409.97 371.366 411.752 371.566Z" fill="black"/>
<path d="M394.784 354.772C398.7 358.694 402.965 362.427 406.605 366.562C407.431 368.25 405.017 369.87 403.741 368.494C399.938 364.398 395.404 360.795 392.008 356.404C391.532 354.822 393.621 353.615 394.784 354.772Z" fill="black"/>
<path d="M237.721 388.367C240.623 394.597 243.5 400.845 246.433 407.062C246.746 407.612 246.859 408.356 246.402 408.857C244.025 411.014 243.212 406.486 242.324 405.004C239.966 399.744 237.346 394.559 235.119 389.268C234.825 387.798 237.014 387.048 237.721 388.367Z" fill="black"/>
<path d="M229.019 384.436C233.103 393.861 237.425 403.18 242.147 412.305C243.467 414.876 244.805 417.434 246.156 419.986C246.356 420.33 246.406 420.742 246.306 421.124C246.006 422.35 244.211 422.594 243.605 421.474C237.469 409.841 231.734 397.995 226.361 385.993C225.323 384.298 228.025 382.691 229.019 384.436Z" fill="black"/>
<path d="M218.519 380.435C219.995 383.681 221.528 386.896 222.979 390.155C223.679 391.368 224.092 393.288 222.228 393.582C221.609 393.713 220.934 393.351 220.621 392.813C218.857 389.298 217.3 385.689 215.624 382.13C214.498 380.273 217.444 378.547 218.519 380.435Z" fill="black"/>
<path d="M224.509 400.36C224.81 399.135 226.611 398.884 227.224 400.004C232.828 410.624 238.407 421.263 244.073 431.851C244.548 433.002 245.818 434.015 245.499 435.347C245.143 436.811 242.997 437.099 242.278 435.766C237.95 426.729 233.109 417.948 228.569 409.016C227.268 406.515 225.967 404.007 224.66 401.505C224.459 401.161 224.403 400.742 224.509 400.36Z" fill="black"/>
<path d="M129.062 158.783C130.826 158.551 133.265 158.508 134.372 160.14C135.46 161.866 133.665 164.205 131.714 163.599C128.643 162.717 126.485 164.749 127.517 167.97C128.643 170.141 126.372 172.567 124.215 171.235C119.949 167.301 123.571 159.352 129.062 158.783Z" fill="black"/>
<path d="M125.892 178.666C126.893 176.815 129.895 177.209 130.389 179.254C130.789 181.168 131.439 184.339 128.75 184.739C127.099 185.033 125.973 183.363 125.867 181.881C125.729 180.817 125.266 179.66 125.892 178.666Z" fill="black"/>
<path d="M288.61 141.712C298.711 124.263 303.52 104.074 302.713 83.8533C302.363 76.0729 301.312 68.9304 299.336 61.3189C298.761 59.3863 301.857 58.4919 302.376 60.4808C309.656 88.813 305.153 119.96 290.311 145.152C289.661 146.353 287.709 146.109 287.384 144.771C287.115 143.607 288.141 142.694 288.61 141.712Z" fill="black"/>
<path d="M280.493 139.612C289.743 118.935 292.732 95.3057 289.887 72.5462C289.124 66.5482 287.691 59.5746 285.859 53.4016C285.296 51.5065 288.348 50.5997 288.861 52.576C297.523 81.8714 295.184 114.031 283.069 142.013C282.675 143.395 280.749 143.921 279.974 142.564C279.404 141.582 280.117 140.531 280.493 139.612Z" fill="black"/>
<path d="M265.264 48.8852C265.589 47.5405 267.559 47.2778 268.222 48.4974C274.064 56.5655 278.492 65.6343 281.388 75.1597C281.675 76.6858 282.751 78.3619 282.157 79.888C281.212 81.364 279.317 80.5197 279.111 78.9561C276.847 70.5878 273.901 63.6204 269.429 56.1715C268.178 54.1013 266.84 52.0874 265.426 50.1298C265.208 49.7608 265.151 49.3043 265.264 48.8852Z" fill="black"/>
<path d="M275.406 143.057C280.065 125.388 281.591 107.538 280.247 89.1131C280.228 88.2875 279.89 87.3368 280.566 86.6926C281.423 85.7795 283.111 86.4612 283.068 87.7308C284.594 106.663 283.218 126.12 278.12 144.408C277.182 145.765 274.912 144.627 275.406 143.057Z" fill="black"/>
<path d="M254.802 51.7181C270.394 78.2741 278.075 109.808 275.685 140.53C275.31 141.618 273.734 141.906 272.952 141.074C271.87 139.498 272.883 137.253 272.696 135.433C273.678 113.28 269.387 90.7077 260.856 70.5562C258.342 64.6083 255.44 58.8231 252.182 53.2567C251.175 51.5931 253.826 49.9919 254.802 51.7181Z" fill="black"/>
<path d="M248.934 82.2331C255.288 92.4152 260.179 103.498 263.757 114.943C266.284 123.08 268.072 131.449 269.123 139.904C269.129 140.505 268.748 141.124 268.172 141.318C267.215 141.787 265.99 140.961 266.027 139.904C263.682 120.672 256.752 100.727 246.451 83.6841C245.488 82.1018 248.008 80.6007 248.934 82.2331Z" fill="black"/>
<path d="M220.728 58.1814C226.288 60.0577 231.554 62.8346 236.151 66.4872C239.422 69.0952 242.55 72.0536 244.945 75.4872C245.145 75.8687 245.139 76.3691 244.945 76.7568C244.57 77.8201 243.037 78.1015 242.274 77.2884C236.383 69.7394 228.715 64.367 220.215 61.5963C217.789 61.2586 218.276 57.6435 220.728 58.1814Z" fill="black"/>
<path d="M206.293 68.3049C234.213 82.4772 255.703 108.827 265.497 138.485C265.741 139.604 266.623 140.799 266.035 141.912C265.378 143.107 263.439 142.869 263.108 141.531C255.09 115.588 237.621 92.2965 215.243 77.1047C212.016 74.7531 208.364 72.9643 205.093 70.7566C204.292 69.8372 205.08 68.2673 206.293 68.3049Z" fill="black"/>
<path d="M186.502 88.7484C212.145 90.4871 243.51 106.93 259.709 131.71C261.898 134.905 263.887 138.245 265.651 141.698C265.876 142.079 265.926 142.536 265.813 142.955C265.475 144.306 263.505 144.581 262.83 143.343C249.458 116.399 220 96.5788 191.987 92.9388C189.854 92.6136 187.703 92.5135 185.564 92.3259C185.082 92.3259 184.619 92.132 184.281 91.7943C182.837 90.1932 184.575 88.2043 186.502 88.7484Z" fill="black"/>
<path d="M225.971 126.864C236.491 130.498 246.473 135.639 255.861 141.593C258.306 143.425 262.647 145.508 264.298 147.822C264.711 149.161 263.116 150.405 261.915 149.655C250.432 140.874 237.016 134.626 224.476 129.103C223.619 128.102 224.72 126.47 225.971 126.864Z" fill="black"/>
<path d="M165.688 118.563C176.071 116.462 186.847 116.318 197.304 117.919C204.14 118.97 210.864 120.796 217.268 123.404C218.269 123.804 219.763 124.217 219.507 125.581C219.432 126.656 218.087 127.288 217.187 126.719C201.92 120.114 182.45 118.301 166.583 121.79C164.506 122.41 163.574 119.12 165.688 118.563Z" fill="black"/>
<path d="M166.261 129.985C194.543 128.022 223.306 132.731 249.437 143.745C253.609 145.496 257.712 147.404 261.727 149.474C262.102 149.693 262.371 150.049 262.484 150.462C262.89 151.826 261.283 153.095 260.057 152.326C230.874 137.359 199.108 130.924 166.598 133.55C162.996 134.376 162.464 129.829 166.261 129.985Z" fill="black"/>
<path d="M161.774 144.158C193.871 138.573 227.382 141.3 258.141 152.045C259.204 152.552 260.649 152.577 261.368 153.584C262.075 154.728 260.912 156.279 259.604 155.879C228.771 144.521 193.559 141.782 162.668 147.398C160.611 148.005 159.654 144.709 161.774 144.158Z" fill="black"/>
<path d="M164.571 162.399C166.854 160.504 171.345 160.054 174.241 158.953C188.876 154.825 203.999 152.467 219.178 151.711C232.218 151.279 245.659 151.317 258.43 153.831C259.919 154.875 258.687 157.39 256.929 156.845C234.464 153.568 207.614 154.569 184.785 159.904C179.275 161.13 173.821 162.587 168.436 164.269C167.567 164.47 166.704 164.995 165.803 164.901C164.646 164.832 163.958 163.362 164.571 162.399Z" fill="black"/>
<path d="M245.754 191.096C252.346 181.614 258.025 171.495 262.515 160.856C262.534 160.806 262.54 160.794 262.546 160.787C262.89 160.049 263.022 159.13 263.772 158.692C265.004 157.917 266.681 159.192 266.249 160.593C261.615 171.782 255.786 182.496 248.737 192.347C247.818 193.641 246.873 194.917 245.891 196.162C245.51 196.562 244.934 196.681 244.403 196.556C241.613 195.324 244.915 192.659 245.754 191.096Z" fill="black"/>
<path d="M217.367 226.958C223.584 221.454 229.826 214.624 234.379 208.533C236.042 206.738 237.725 202.997 239.507 201.865C240.752 201.484 241.903 202.966 241.208 204.073C235.648 212.435 229.144 220.178 221.807 227.039C220.569 227.977 219.575 229.635 217.999 229.929C216.341 229.904 216.054 227.752 217.367 226.958Z" fill="black"/>
<path d="M200.612 217.595C218.518 205.687 235.642 189.232 248.551 172.414C252.623 167.298 256.131 161.725 259.865 156.403C261.179 155.271 263.23 157.041 262.286 158.529C246.456 183.215 225.635 205.305 201.037 221.279C198.548 221.354 198.541 218.521 200.612 217.595Z" fill="black"/>
<path d="M185.171 198.088C186.009 197.375 187.253 197.406 188.267 197.043C209.012 191.583 228.52 181.595 245.25 168.298C249.647 164.939 253.575 160.955 257.721 157.359C259.31 156.584 260.867 158.86 259.554 160.08C239.371 179.881 213.728 194.629 186.171 201.033C184.783 200.933 184.164 199.032 185.171 198.088Z" fill="black"/>
<path d="M281.533 161.283C281.864 159.914 283.878 159.645 284.554 160.889C289.313 168.957 292.759 177.857 294.367 187.101C294.342 188.934 296.243 192.812 293.66 193.368C292.916 193.518 292.128 192.974 291.94 192.242C291.652 190.185 291.258 188.152 290.827 186.119C289.864 181.41 287.837 175.149 286.286 171.616C284.96 168.501 283.428 165.474 281.702 162.559C281.476 162.178 281.414 161.709 281.533 161.283Z" fill="black"/>
<path d="M296.855 214.787C296.323 210.102 295.003 205.512 294.128 200.921C294.253 199.326 296.723 199.157 297.092 200.721C300.626 213.455 301.871 226.833 300.695 239.992C300.576 241.393 300.394 242.781 300.257 244.182C300.244 245.152 299.988 246.277 298.906 246.54C297.655 246.922 296.373 245.652 296.761 244.395C298.143 236.708 298.168 223.255 296.855 214.787Z" fill="black"/>
<path d="M280.985 181.159C280.072 175.487 278.334 169.92 277.227 164.335C277.37 162.503 280.216 162.29 280.642 164.104C286.364 185.362 288.622 207.547 287.465 229.531C287.115 235.772 286.489 242.002 285.532 248.181C285.414 248.619 285.12 248.988 284.732 249.219C283.787 249.795 282.462 249.251 282.18 248.181C282.03 248 282.305 246.236 282.411 245.585C285.445 223.864 284.888 201.474 280.985 181.159Z" fill="black"/>
<path d="M272.365 180.494C271.889 175.128 270.851 170.35 269.863 164.27C270.001 162.513 272.721 162.319 273.128 164.045C276.067 177.892 276.924 192.14 275.942 206.256C275.667 210.196 275.298 214.13 274.804 218.051C274.81 218.764 274.297 219.44 273.603 219.628C271.633 220.003 271.277 218.101 271.764 216.607C273.584 205.443 273.678 192.44 272.365 180.494Z" fill="black"/>
<path d="M263.726 245.849C265.308 243.297 266.227 241.183 267.097 238.781C268.679 234.447 269.048 230.951 269.567 227.28C270.149 225.647 272.769 226.185 272.707 227.911C272.275 234.022 270.555 240.001 267.854 245.492C266.89 246.924 266.753 249.439 264.201 248.526C263.263 247.981 263.106 246.687 263.726 245.849Z" fill="black"/>
<path d="M241.199 237.855C253.207 219.092 260.668 199.666 264.415 177.407C265.347 172.322 265.559 168.032 266.247 162.184C266.854 160.489 269.606 161.027 269.531 162.847C267.673 190.597 258.711 218.229 243 241.214C242.124 241.989 240.586 241.451 240.31 240.325C240.054 239.375 240.736 238.612 241.199 237.855Z" fill="black"/>
<path d="M334.877 172.532C336.26 172.419 337.373 173.614 338.524 174.233C344.515 178.161 350.119 182.683 355.198 187.742C356.724 189.612 359.857 191.77 360.401 194.034C360.452 195.642 358.313 196.536 357.206 195.36C351.345 188.649 345.06 183.152 338.636 178.711C337.073 177.279 334.077 176.541 333.408 174.458C333.226 173.576 333.971 172.594 334.877 172.532Z" fill="black"/>
<path d="M295.404 154.705C306.668 156.831 317.556 161.103 327.332 167.088C329.358 168.283 327.563 171.404 325.499 170.222C315.611 164.261 306.624 160.603 295.003 158.326C292.714 157.751 292.939 154.674 295.404 154.705Z" fill="black"/>
<path d="M294.629 160.412C308.996 166.341 322.261 175.135 334.182 185.104C342.406 192.397 350.668 200.296 356.76 209.415C357.066 211.022 354.877 212.11 353.758 210.903C338.998 192.165 321.973 177.955 301.046 167.173C298.551 165.697 295.567 164.89 293.235 163.258C292.29 162.188 293.21 160.368 294.629 160.412Z" fill="black"/>
<path d="M290.954 162.145C303.456 171.245 314.752 181.965 324.696 193.799C331.813 202.523 338.787 211.667 344.022 221.624C344.385 223.538 341.539 224.539 340.601 222.806C327.729 200.428 308.991 179.945 289.015 165.141C286.526 163.765 288.69 160.319 290.954 162.145Z" fill="black"/>
<path d="M308.809 196.194C315.257 204.344 320.342 213.556 324.369 223.126C325.489 225.802 326.515 228.523 327.44 231.275C327.572 231.738 327.503 232.238 327.259 232.651C326.533 233.983 324.363 233.714 324 232.226C320.091 220.33 313.768 208.991 305.857 198.014C304.812 196.088 307.495 194.474 308.809 196.194Z" fill="black"/>
<path d="M290.33 146.647C290.555 145.866 291.337 145.447 291.881 144.896C307.461 131.368 319.476 115.251 327.562 96.1498C328.451 94.0734 330.108 89.8079 331.065 86.8684C331.177 86.4556 331.453 86.1053 331.815 85.8927C333.004 85.1484 334.636 86.3743 334.217 87.7377C326.024 111.11 311.877 133.582 292.15 148.711C291.018 148.936 290.005 147.736 290.33 146.647Z" fill="black"/>
<path d="M289.638 146.816C290.12 146.016 291.146 145.884 291.909 145.453C310.39 136.697 325.651 123.913 338.328 107.777C339.836 106.007 342.744 101.472 344.751 98.8393C346.121 97.6509 348.26 99.5085 347.272 101.053C333.55 121.824 313.705 139.93 290.664 149.337C289.601 149.062 289.075 147.754 289.638 146.816Z" fill="black"/>
<path d="M291.656 148.873C292.388 148.229 293.476 148.167 294.396 147.941C314.084 144.639 331.709 136.458 346.563 124.006C348.921 122.017 351.191 119.922 353.368 117.733C353.693 117.414 354.131 117.226 354.587 117.226C356.063 117.183 356.895 119.146 355.807 120.166C343.517 132.593 328.269 142.05 311.701 147.616C305.409 149.417 298.799 151.938 292.232 151.757C291.075 151.35 290.781 149.711 291.656 148.873Z" fill="black"/>
<path d="M309.427 151.819C320.979 150.925 333.575 148.323 345.521 143.213C348.304 142.262 355.785 138.109 359.981 135.964C361.833 135.608 362.796 138.366 361.12 139.267C347.723 147.36 332.681 152.863 317.183 155.096C314.393 155.428 311.598 155.922 308.783 155.891C308.264 155.897 307.751 155.678 307.388 155.309C305.912 153.683 307.47 151.7 309.427 151.819Z" fill="black"/>
<path d="M335.456 161.541C341.336 161.453 350.323 159.283 354.958 157.188C357.622 156.062 360.199 154.742 362.663 153.229C363.076 152.991 363.576 152.922 364.033 153.047C365.502 153.404 365.796 155.568 364.458 156.293C355.752 161.641 345.676 164.774 335.463 165.168C334.581 165.243 333.561 165.037 333.08 164.217C332.179 162.635 333.968 161.384 335.456 161.541Z" fill="black"/>
<path d="M218.97 164.472C230.791 161.095 242.693 158.03 254.57 154.853C256.74 154.221 257.71 157.661 255.502 158.237C243.4 161.257 231.348 164.854 219.177 167.437C217.576 167.312 217.413 164.841 218.97 164.472Z" fill="black"/>
<path d="M170.883 169.769C180.702 169.781 189.996 168.962 199.215 167.261C202.042 166.742 204.85 166.141 207.639 165.466C208.052 165.353 208.496 165.409 208.865 165.628C210.054 166.273 209.81 168.211 208.484 168.53C196.982 171.282 185.161 172.765 173.334 172.827C171.683 172.739 169.944 173.008 168.337 172.664C167.968 172.539 167.655 172.227 167.53 171.858C166.817 169.587 169.344 169.644 170.883 169.769Z" fill="black"/>
<path d="M267.706 166.575C268.112 166.575 268.525 166.481 268.907 166.293C273.441 164.035 279.877 163.741 286.563 165.499C286.825 165.568 287.101 165.605 287.376 165.586C291.729 165.38 295.657 161.784 296.501 157.218C297.22 153.334 295.844 149.125 292.823 145.954C290.453 143.471 287.182 141.664 283.104 140.594C276.731 138.905 269.219 139.293 260.789 141.72C259.994 141.945 259.344 142.533 259.037 143.302C258.731 144.071 258.794 144.941 259.213 145.654C260.789 148.349 260.538 152.102 258.625 154.573C258.005 155.367 257.887 156.443 258.312 157.349C258.737 158.263 259.632 158.863 260.639 158.901C261.752 158.951 262.89 159.52 263.759 160.477C264.629 161.434 265.092 162.622 265.029 163.741C264.973 164.698 265.436 165.611 266.236 166.131C266.674 166.431 267.187 166.575 267.706 166.575ZM274.73 144.935C277.231 144.935 279.57 145.216 281.728 145.785C284.83 146.604 287.251 147.912 288.927 149.663C290.734 151.558 291.61 154.078 291.21 156.236C290.841 158.219 289.202 159.914 287.451 160.183C283.354 159.157 276.406 158.087 269.764 160.17C269.307 158.976 268.625 157.85 267.731 156.862C266.855 155.898 265.83 155.117 264.71 154.554C265.73 151.883 265.886 148.887 265.16 146.123C268.569 145.335 271.765 144.935 274.73 144.935Z" fill="black"/>
<path d="M292.422 149.192C293.197 149.192 293.967 148.861 294.498 148.216C305.531 134.826 313.58 118.846 317.777 102.009C319.503 95.0983 321.386 84.8161 317.858 75.3971C315.156 68.1858 309.265 61.6313 300.828 56.4464C282.265 45.0448 257.635 43.8689 238.065 53.4381C236.733 54.0885 236.183 55.6959 236.833 57.0281C237.484 58.3603 239.097 58.9169 240.423 58.2602C258.373 49.4791 280.983 50.5548 298.013 61.0184C303.179 64.1893 309.946 69.5931 312.823 77.2734C315.106 83.3776 315.025 90.8203 312.561 100.702C308.558 116.77 300.871 132.018 290.345 144.795C289.401 145.94 289.564 147.635 290.708 148.573C291.215 148.992 291.821 149.192 292.422 149.192Z" fill="black"/>
<path d="M271.271 144.282C271.296 144.282 271.315 144.282 271.34 144.282C272.822 144.244 273.992 143.012 273.954 141.53C273.366 118.264 268.081 94.7161 258.669 73.4388C255.692 66.7091 252.033 59.9669 245.453 56.2831C239.962 53.1997 232.894 52.6118 224.445 54.5319C200.528 59.9732 180.896 81.5757 177.75 105.899C177.562 107.369 178.6 108.713 180.07 108.907C181.546 109.07 182.891 108.057 183.079 106.587C185.937 84.4152 203.837 64.7265 225.633 59.7668C232.738 58.1594 238.523 58.5534 242.826 60.9676C248.03 63.8821 251.151 69.73 253.753 75.609C262.884 96.2546 268.006 119.096 268.582 141.667C268.626 143.125 269.82 144.282 271.271 144.282Z" fill="black"/>
<path d="M189.737 180.307C210.839 180.307 244.775 167.248 261.95 158.61C263.276 157.941 263.807 156.327 263.144 155.002C262.475 153.676 260.861 153.144 259.535 153.807C242.098 162.569 207.061 176.035 187.335 174.859C182.107 174.546 175.558 173.702 171.262 169.906C167.428 166.522 165.301 160.949 164.576 152.381C163.894 144.375 164.225 136.307 165.558 128.408C166.333 123.792 167.703 118.013 171.412 114.286C176.303 109.37 184.733 108.194 196.467 110.796C220.202 116.049 242.736 128.414 259.911 145.614C260.961 146.658 262.656 146.658 263.707 145.614C264.758 144.563 264.758 142.862 263.707 141.811C245.813 123.899 222.347 111.021 197.624 105.548C183.977 102.528 173.876 104.191 167.603 110.496C162.825 115.293 161.167 122.11 160.26 127.507C158.853 135.857 158.503 144.375 159.222 152.831C159.76 159.148 161.223 168.204 167.703 173.927C173.225 178.806 180.925 179.85 187.01 180.213C187.898 180.282 188.805 180.307 189.737 180.307Z" fill="black"/>
<path d="M225.012 234.264C228.014 234.264 231.11 233.745 234.149 232.444C241.43 229.323 246.189 222.456 249.885 216.145C259.498 199.74 266.422 182.009 270.45 163.433C270.762 161.989 269.843 160.556 268.398 160.237C266.941 159.931 265.515 160.844 265.202 162.295C261.287 180.314 254.576 197.513 245.251 213.431C241.83 219.266 237.865 225.007 232.029 227.509C223.93 230.987 214.811 227.14 210.095 224.532C193.84 215.551 182.814 197.038 182.651 178.463C182.639 176.987 181.438 175.798 179.968 175.798C179.962 175.798 179.949 175.798 179.943 175.798C178.461 175.811 177.266 177.024 177.279 178.506C177.46 199.277 189.318 219.185 207.493 229.223C211.415 231.399 217.938 234.264 225.012 234.264Z" fill="black"/>
<path d="M276.759 251.193C282.037 251.193 287.303 250.673 292.476 249.616C297.698 248.547 305.16 246.439 309.594 240.454C314.297 234.118 313.916 225.687 313.053 219.051C310.413 198.662 303.121 178.755 291.975 161.486C291.169 160.242 289.511 159.879 288.26 160.686C287.016 161.486 286.659 163.15 287.46 164.395C298.18 181 305.185 200.138 307.724 219.746C308.456 225.381 308.837 232.461 305.278 237.258C302.733 240.685 298.324 242.943 291.394 244.357C270.704 248.584 248.264 243.556 231.371 230.885C230.176 229.997 228.5 230.234 227.612 231.423C226.724 232.611 226.961 234.293 228.15 235.181C242.034 245.595 259.415 251.193 276.759 251.193Z" fill="black"/>
<path d="M310.226 240.511C310.414 240.511 310.601 240.492 310.789 240.455C322.335 237.997 339.015 233.362 350.548 221.51C360.524 211.266 366.44 192.822 357.753 178.806C353.456 171.882 346.408 167.335 340.741 164.145C326.544 156.159 310.501 150.786 294.34 148.61C292.883 148.397 291.519 149.441 291.319 150.911C291.119 152.381 292.151 153.732 293.621 153.932C309.107 156.015 324.492 161.168 338.102 168.824C343.205 171.694 349.535 175.747 353.181 181.626C360.43 193.322 355.251 208.97 346.695 217.758C336.182 228.559 320.527 232.881 309.67 235.188C308.219 235.495 307.293 236.927 307.599 238.372C307.875 239.648 308.988 240.511 310.226 240.511Z" fill="black"/>
<path d="M353.31 180.683C353.767 180.683 354.223 180.571 354.642 180.327C360.734 176.831 365.075 170.182 366.569 162.096C367.952 154.597 366.751 146.916 365.55 141.062C362.911 128.216 358.533 115.788 352.516 104.13C349.751 98.7641 345.824 91.9531 339.97 86.8808C333.703 81.4458 326.091 78.8878 319.074 79.8635C317.604 80.0636 316.578 81.4208 316.785 82.8906C316.991 84.3603 318.348 85.3923 319.812 85.1797C325.291 84.4354 331.357 86.5181 336.449 90.9399C341.608 95.4118 345.192 101.654 347.738 106.588C353.523 117.815 357.745 129.773 360.284 142.144C361.453 147.854 362.492 154.578 361.285 161.126C360.096 167.562 356.613 173.003 351.966 175.674C350.677 176.412 350.233 178.057 350.977 179.339C351.478 180.202 352.385 180.683 353.31 180.683Z" fill="black"/>
<path d="M194.107 217.114C195.114 217.114 196.077 216.545 196.534 215.582C197.171 214.243 196.596 212.642 195.258 212.004C181.661 205.55 166.488 202.31 151.496 202.641C150.014 202.673 148.838 203.905 148.869 205.387C148.9 206.869 150.151 207.964 151.615 208.014C165.875 207.689 180.116 210.759 192.956 216.857C193.331 217.033 193.719 217.114 194.107 217.114Z" fill="black"/>
<path d="M129.439 255.446C129.564 255.446 129.683 255.439 129.808 255.421C140.578 253.932 150.61 253.601 161.38 254.364C162.143 254.414 162.887 254.145 163.431 253.619C163.982 253.094 164.275 252.356 164.25 251.599L162.812 206.856C162.768 205.405 161.574 204.254 160.129 204.254C160.098 204.254 160.066 204.254 160.041 204.254C158.559 204.304 157.396 205.542 157.446 207.024L158.784 248.816C149.659 248.334 140.697 248.647 131.559 249.767C126.093 223.167 121.765 196.017 118.688 169.029C118.262 165.264 118 161.374 119.845 158.86C121.446 156.683 124.573 155.664 127.425 154.951C137.563 152.412 148.389 151.899 158.722 153.456C160.185 153.656 161.555 152.668 161.78 151.198C161.999 149.735 160.992 148.365 159.522 148.14C148.49 146.47 136.944 147.02 126.118 149.735C122.34 150.679 118.131 152.124 115.517 155.664C112.515 159.748 112.802 164.795 113.346 169.623C116.53 197.599 121.058 225.75 126.799 253.288C127.081 254.564 128.188 255.446 129.439 255.446Z" fill="black"/>
<path d="M156.248 275.712C156.285 275.712 156.329 275.712 156.366 275.712C157.849 275.649 158.999 274.392 158.931 272.91L157.999 251.67C157.936 250.188 156.635 249.012 155.197 249.106C153.715 249.168 152.564 250.425 152.633 251.908L153.564 273.148C153.627 274.586 154.815 275.712 156.248 275.712Z" fill="black"/>
<path d="M139.814 281.228C139.926 281.228 140.033 281.222 140.145 281.209C141.621 281.028 142.666 279.683 142.478 278.214C141.377 269.389 139.726 260.533 137.556 251.908C137.193 250.469 135.736 249.594 134.298 249.956C132.859 250.319 131.99 251.776 132.346 253.215C134.46 261.633 136.08 270.264 137.15 278.87C137.318 280.234 138.482 281.228 139.814 281.228Z" fill="black"/>
<path d="M149.824 309.606C150.349 309.606 150.874 309.456 151.337 309.137C152.563 308.299 152.869 306.629 152.031 305.403L139.667 287.366C137.521 284.239 137.709 282.994 138.015 282.531C138.441 281.881 139.854 281.449 140.786 281.162L153.27 277.334C156.128 276.458 158.667 275.802 160.656 276.596C162.332 277.271 163.708 279.079 164.928 280.674L178.562 298.524C179.463 299.7 181.145 299.937 182.327 299.03C183.51 298.13 183.735 296.447 182.834 295.265L169.2 277.409C167.642 275.37 165.703 272.837 162.664 271.611C158.749 270.035 154.508 271.336 151.7 272.199L139.216 276.027C137.646 276.508 135.013 277.309 133.525 279.586C130.742 283.838 134.131 288.779 135.245 290.399L147.61 308.437C148.129 309.2 148.967 309.606 149.824 309.606Z" fill="black"/>
<path d="M286.576 346.811C324.058 346.811 356.894 337.611 365.987 331.644C382.305 320.943 386.427 307.546 379.334 288.201C376.964 281.734 366.069 275.918 357.344 272.178C329.293 260.157 260.051 244.458 198.715 271.089C187.895 275.786 181.19 282.935 178.782 292.323C175.68 304.431 180.915 317.178 184.943 322.375C198.859 340.325 251.877 345.197 274.03 346.461C278.258 346.698 282.448 346.811 286.576 346.811ZM273.511 261.846C308.26 261.846 338.912 270.12 355.23 277.119C367.757 282.485 373.292 287.319 374.293 290.053C380.535 307.077 377.27 317.822 363.042 327.16C353.741 333.258 315.096 343.415 274.336 341.101C229.736 338.561 197.908 330.331 189.19 319.085C186.313 315.383 181.259 304.294 183.986 293.661C185.956 285.956 191.635 280.021 200.854 276.018C224.858 265.592 250.113 261.846 273.511 261.846Z" fill="black"/>
<path d="M251.024 397.358C251.261 397.358 251.499 397.327 251.731 397.264L427.89 349.412C429.06 349.093 429.873 348.03 429.873 346.823V323.05C429.873 321.98 429.241 321.011 428.259 320.586L381.933 300.472C380.57 299.878 378.994 300.503 378.4 301.866C377.812 303.23 378.431 304.806 379.795 305.4L424.501 324.814V344.771L251.249 391.829L121.065 332.875L120.596 320.148C143.787 313.081 162.813 306.47 181.225 300.065C182.626 299.577 183.371 298.051 182.883 296.65C182.395 295.249 180.869 294.505 179.468 294.993C160.586 301.56 141.054 308.346 117.068 315.607C115.899 315.964 115.117 317.058 115.167 318.278L115.774 334.733C115.811 335.752 116.424 336.659 117.35 337.078L249.929 397.12C250.267 397.276 250.642 397.358 251.024 397.358Z" fill="black"/>
<path d="M245.375 465.457C245.6 465.457 245.831 465.426 246.056 465.369L428.996 417.474C430.216 417.155 431.054 416.023 430.997 414.759L430.447 401.85C430.416 401.044 430.015 400.299 429.371 399.818C428.727 399.33 427.901 399.167 427.113 399.361L246.181 444.286L120.963 389.748C120.131 389.392 119.174 389.473 118.418 389.961C117.661 390.461 117.204 391.306 117.204 392.206V406.91C117.204 407.967 117.83 408.93 118.799 409.362L244.274 465.213C244.63 465.382 244.999 465.457 245.375 465.457ZM425.544 412.827L245.606 459.934L122.583 405.171V396.309L244.874 449.577C245.418 449.809 246.019 449.859 246.594 449.721L425.225 405.365L425.544 412.827Z" fill="black"/>
<path d="M420.997 404.94C422.461 404.94 423.662 403.764 423.68 402.294L424.5 348.369C424.525 346.887 423.336 345.668 421.854 345.643C421.842 345.643 421.829 345.643 421.81 345.643C420.347 345.643 419.146 346.818 419.127 348.288L418.308 402.213C418.283 403.695 419.471 404.915 420.953 404.94C420.966 404.94 420.985 404.94 420.997 404.94Z" fill="black"/>
<path d="M244.603 446.237C246.048 446.237 247.242 445.086 247.286 443.635L248.9 392.299C248.95 390.817 247.78 389.578 246.298 389.535C244.816 389.478 243.577 390.654 243.527 392.136L241.914 443.472C241.864 444.954 243.033 446.193 244.516 446.237C244.547 446.237 244.572 446.237 244.603 446.237Z" fill="black"/>
<path d="M125.61 397.356C125.622 397.356 125.635 397.356 125.647 397.356C127.129 397.337 128.312 396.118 128.293 394.629C128.168 385.842 127.98 376.379 127.792 366.91C127.605 357.322 127.417 347.722 127.292 338.815C127.273 337.333 126.122 336.082 124.565 336.17C123.083 336.189 121.901 337.408 121.92 338.897C122.045 347.809 122.232 357.416 122.42 367.016C122.601 376.473 122.789 385.929 122.914 394.704C122.945 396.18 124.14 397.356 125.61 397.356Z" fill="black"/>
<path d="M250.656 372.823C250.837 372.823 251.012 372.804 251.194 372.766C310.46 360.696 369.645 345.003 427.11 326.128C428.517 325.665 429.286 324.145 428.823 322.738C428.361 321.324 426.847 320.555 425.434 321.024C368.419 339.75 309.703 355.329 250.906 367.344L121.122 315.889C119.759 315.345 118.183 316.021 117.638 317.397C117.094 318.773 117.77 320.336 119.146 320.88L249.674 372.629C249.987 372.76 250.318 372.823 250.656 372.823Z" fill="black"/>
<path d="M251.396 396.189C252.753 396.189 253.923 395.163 254.067 393.781C254.899 385.738 254.642 377.613 253.304 369.633C253.06 368.169 251.684 367.193 250.208 367.431C248.744 367.675 247.756 369.064 248.006 370.527C249.263 378.032 249.507 385.669 248.726 393.23C248.575 394.706 249.645 396.026 251.121 396.176C251.208 396.182 251.302 396.189 251.396 396.189Z" fill="black"/>
<path d="M246.568 464.239C247.957 464.239 249.133 463.17 249.245 461.763L250.358 447.634C250.477 446.158 249.37 444.863 247.894 444.744C246.412 444.619 245.124 445.733 245.005 447.215L243.891 461.343C243.773 462.819 244.88 464.114 246.356 464.233C246.424 464.233 246.493 464.239 246.568 464.239Z" fill="black"/>
<path d="M280.147 308.739C285.419 308.739 290.467 307.87 293.594 305.9C296.014 304.374 297.265 302.178 297.127 299.72C296.69 292.203 286.182 289.119 275.988 289.445C267.77 289.682 258.175 292.259 258.175 298.726C258.175 300.515 258.988 303.092 262.854 305.224C266.85 307.42 273.674 308.739 280.147 308.739ZM277.351 294.792C285.232 294.792 291.586 297.056 291.761 300.033C291.767 300.208 291.799 300.684 290.729 301.353C285.963 304.361 271.553 303.88 265.449 300.515C264.136 299.789 263.548 299.089 263.548 298.72C263.548 297.519 267.995 295.048 276.144 294.811C276.544 294.792 276.951 294.792 277.351 294.792Z" fill="black"/>
</svg>
