<svg width="1273" height="541" viewBox="0 0 1273 541" fill="none" xmlns="http://www.w3.org/2000/svg">
<path d="M178.836 395.555C166.322 413.869 162.845 433.972 166.282 452.027C167.989 460.983 171.391 469.432 176.228 476.907C181.065 484.382 187.356 490.896 194.835 495.979C209.051 505.645 227.533 510.106 248.481 506.148C254.182 505.07 259.724 503.524 264.995 501.444C265.001 501.441 265.009 501.447 265.008 501.454C264.781 507.707 262.707 512.46 257.012 517.321C222.162 547.052 192.26 534.837 158.453 521.028C117.383 504.251 70.6855 485.176 2.71238 533.112C1.9438 533.651 1.75987 534.714 2.30461 535.479C2.84618 536.245 3.91343 536.428 4.68187 535.885C71.1241 489.029 116.901 507.728 157.165 524.184C191.989 538.409 222.795 550.99 259.23 519.907C266.476 513.727 268.636 507.919 268.504 499.976C268.504 499.972 268.506 499.968 268.51 499.966C270.491 499.07 272.43 498.094 274.318 497.032C281.593 492.943 288.126 487.586 293.576 480.749C294.976 478.992 296.255 477.19 297.421 475.349C297.423 475.346 297.427 475.344 297.43 475.345C302.988 475.874 307.967 476.852 312.473 478.173C321.543 480.836 328.707 484.898 334.821 489.524C339.99 493.434 344.654 497.191 348.986 500.68C367.796 515.829 380.482 526.036 404.029 524.93C404.033 524.929 404.037 524.932 404.039 524.935C405.181 527.232 406.939 529.267 409.27 530.864C415.694 535.272 426.54 536.358 440.709 530.453C445.87 528.3 449.902 525.069 452.767 521.069C455.743 516.916 457.449 511.961 457.851 506.552C460.117 476.142 452.59 401.996 451.215 388.878C451.215 388.872 451.22 388.868 451.226 388.868C468.534 389.829 486.001 387.147 502.592 381.646C519.765 375.953 536.004 367.246 550.164 356.457C550.17 356.452 550.179 356.455 550.18 356.463C550.878 369.663 553.446 419.654 553.72 448.813C553.72 448.818 553.717 448.822 553.713 448.823C551.062 449.541 548.59 450.352 546.324 451.257C545.658 451.523 545.009 451.798 544.379 452.082C544.377 452.082 544.375 452.083 544.373 452.082C541.652 451.582 538.137 452.087 533.798 454C523.493 458.549 518.109 466.916 517.191 474.189C516.805 477.251 517.204 480.151 518.352 482.545C519.548 485.043 521.537 486.976 524.274 487.982C529.209 489.796 536.606 488.491 546.115 481.687C551.179 478.067 553.9 474.885 555.393 471.111C556.865 467.391 557.068 463.273 557.133 457.642C557.153 455.742 557.159 453.673 557.148 451.459C557.148 451.454 557.151 451.45 557.156 451.449C563.184 450.013 570.056 449.022 577.396 448.449C601.753 446.543 631.137 449.21 652.141 455.251C652.144 455.252 652.146 455.254 652.147 455.257C652.989 457.289 653.865 459.232 654.764 461.057C657.785 467.192 660.589 471.129 664.395 473.912C668.188 476.684 672.848 478.217 679.601 479.555C683.868 480.401 688.44 481.129 692.976 481.751C692.978 481.751 692.98 481.752 692.981 481.754C697.949 486.635 702.553 490.769 707.847 492.747C712.278 494.403 716.61 493.361 719.173 491.396C720.314 490.521 721.141 489.438 721.539 488.287C721.988 486.981 721.899 485.621 721.129 484.36C719.993 482.5 717.257 480.954 712.36 480.503C707.845 480.085 702.456 479.535 696.821 478.823L694.557 478.53C694.555 478.529 694.553 478.528 694.551 478.527L692.977 476.96C686.184 470.201 678.438 462.489 667.423 457.253C663.728 455.498 659.438 453.902 654.702 452.477C654.699 452.476 654.697 452.474 654.696 452.471C649.412 439.177 645.621 422.091 645.854 406.319C646.073 391.794 649.712 378.442 658.789 370.398C671.761 358.908 680.686 350.252 686.166 343.037C688.82 339.547 690.686 336.365 691.83 333.355C691.832 333.349 691.838 333.347 691.843 333.349C692.835 333.821 693.854 334.27 694.896 334.68C703.233 337.963 713.173 339.084 722.806 334.53C725.041 333.473 727.257 332.108 729.422 330.401C731.389 328.848 733.149 327.168 734.716 325.39C742.462 316.603 745.647 305.296 745.797 294.817C745.871 289.521 745.165 284.422 743.876 279.944C743.874 279.938 743.879 279.931 743.885 279.931C747.784 279.68 751.162 278.658 753.396 276.709C754.251 275.967 754.941 275.093 755.432 274.092C757.629 269.617 757.585 264.297 757.522 256.868C757.445 247.772 757.341 235.377 761.421 217.629C764.539 204.055 771.586 195.138 780.114 189.72C791.032 182.785 804.419 181.516 815.173 183.523C833.558 186.952 838.189 179.109 848.404 161.785C849.899 159.252 851.52 156.511 853.293 153.618L855.823 149.497C870.173 126.134 894.932 85.8269 895.424 69.6628C895.521 66.5168 894.92 63.487 893.843 60.6767C893.841 60.671 893.844 60.6646 893.85 60.6633C896.16 60.1742 898.209 59.218 899.765 57.6857C903.411 54.0951 903.608 47.0612 901.879 40.3288C901.878 40.3233 901.881 40.3177 901.887 40.3165C903.306 40.0069 904.678 39.5642 905.958 38.9779C910.541 36.8734 912.024 31.443 911.871 25.7146C911.871 25.7094 911.875 25.7049 911.88 25.7044C912.982 25.5851 914.123 25.3007 915.285 24.8364C922.476 21.9661 925.966 10.3299 927.121 5.54059C927.123 5.53461 927.129 5.53181 927.135 5.53417L937.573 9.87204C937.58 9.87458 937.582 9.8819 937.578 9.8871C934.666 13.5897 928.889 22.1552 931.711 28.5414C931.713 28.5456 931.712 28.5505 931.708 28.5533C929.954 29.9603 928.561 31.6473 927.793 33.527C926.749 36.0748 926.831 38.9042 928.632 41.7992C929.887 43.8147 931.848 45.9341 934.153 47.9662C934.159 47.9711 934.157 47.9801 934.151 47.9829C931.114 49.2391 928.255 50.9657 925.948 53.0392C921.75 56.8108 919.348 61.7217 920.803 67.0987C921.041 67.9777 921.353 68.8253 921.73 69.6449C921.733 69.6508 921.729 69.6577 921.723 69.6589C917.939 70.3934 914.398 71.7191 911.58 73.6524C909.642 74.9831 908.034 76.5991 906.904 78.5002C903.56 84.132 881.874 137.134 859.49 191.851L856.919 198.14C856.916 198.145 856.91 198.148 856.905 198.145C844.562 191.779 834.131 190.748 832.944 190.646C832.251 190.544 831.533 190.876 831.185 191.53C831.109 191.675 804.135 241.941 788.008 274.337C779.446 291.538 772.179 305.719 767.243 315.24C767.242 315.242 767.241 315.244 767.238 315.245C764.347 316.502 761.114 318.79 757.817 322.381C753.944 326.599 749.343 332.991 744.686 339.465C737.865 348.944 730.906 358.615 726.336 361.367C725.16 362.076 724.263 362.167 723.781 361.374C721.508 357.634 723.674 355.153 724.633 354.056C725.387 353.191 725.882 352.629 725.428 351.541C724.774 349.972 723.366 350.319 719.304 351.321L718.159 351.596C714.791 352.425 713.124 355.91 713.019 360.871C712.946 364.272 713.605 368.456 714.941 372.935C716.268 377.373 718.259 382.12 720.861 386.685C728.946 400.866 742.967 413.469 761.48 410.534C777.447 408.005 788.579 403.655 796.989 400.095C796.995 400.092 797.001 400.095 797.003 400.101C798.953 406.38 803.285 408.998 807.964 409.38C811.544 409.672 815.305 408.599 818.274 406.856C821.37 405.037 823.685 402.43 824.21 399.772C824.694 397.328 823.794 394.949 820.888 393.13C814.585 389.184 808.725 391.389 799.566 395.297C799.56 395.299 799.553 395.295 799.552 395.289C798.756 385.862 803.529 372.064 807.242 361.33C810.165 352.877 812.476 346.199 810.956 343.765C809.901 342.078 808.068 341.936 805.162 343.739C797.733 348.346 796.168 355.308 795.518 359.547C795.517 359.556 795.504 359.558 795.5 359.55C791.958 353.216 796.749 344.123 804.458 329.495C806.428 325.756 808.585 321.658 810.896 317.045C816.382 306.082 837.349 254.981 858.636 202.995C858.638 202.99 858.645 202.987 858.65 202.99C865.947 207.264 873.689 213.562 880.316 222.829C894.647 242.875 884.831 265.79 875.798 286.87C872.838 293.783 869.955 300.506 867.999 306.888C867.505 308.493 867.088 310.06 866.733 311.584C866.731 311.591 866.722 311.594 866.716 311.59C865.109 310.305 863.365 309.309 861.539 308.716C858.778 307.819 855.849 307.827 852.904 309.107C847.877 311.289 842.89 317.26 838.885 328.966C832.175 348.575 827.781 363.491 827.318 374.538C826.996 382.239 828.529 388.107 832.417 392.383C832.42 392.386 832.42 392.392 832.417 392.395C829.99 395.913 828.227 400.272 827.451 404.88C826.826 408.578 826.832 412.456 827.634 416.204C829.305 424.016 828.041 436.58 823.306 450.539C819.309 462.327 812.836 475.062 803.572 486.721C801.714 489.062 799.706 491.17 797.599 493.048C793.975 496.282 790.06 498.824 786.033 500.784C786.031 500.786 786.027 500.786 786.025 500.784C782.921 499.268 779.875 497.642 776.917 495.921C763.996 488.408 753.138 486.902 746.104 488.361C743.446 488.909 741.289 489.887 739.724 491.128C738.01 492.487 736.963 494.179 736.681 496.029C736.349 498.192 737.07 500.484 738.989 502.619C739.416 503.096 739.922 503.563 740.501 504.017C745.289 507.793 755.076 510.295 766.186 509.5C772.553 509.046 779.386 507.523 786 504.554C786.002 504.553 786.006 504.553 786.008 504.554C794.974 508.81 804.423 512.178 813.881 514.375C826.383 517.276 839.131 518.086 850.612 516.223M178.836 395.555C178.872 395.494 178.792 395.614 178.836 395.555ZM178.836 395.555C198.576 370.471 213.15 356.81 225.483 345.301C228.535 342.456 231.453 339.731 234.29 336.982C234.292 336.979 234.294 336.976 234.293 336.973C229.926 311.145 227.273 288.405 228.452 273.5C229.383 261.697 235.946 253.256 243.806 249.416C246.971 247.866 250.357 247.062 253.677 247.078C257.039 247.093 260.337 247.944 263.282 249.711C269.629 253.518 274.31 261.531 274.398 274.508C274.43 278.966 273.754 283.784 272.217 288.827C270.806 293.447 268.666 298.277 265.672 303.217C256.061 319.062 247.429 328.883 237.963 338.169C237.96 338.171 237.959 338.175 237.96 338.178C240.397 352.414 243.341 367.57 246.44 382.843C246.441 382.848 246.445 382.852 246.45 382.851C255.335 382.432 264.222 383.751 272.281 387.111C276.454 388.881 280.348 391.221 283.885 394.02C293.91 401.946 301.226 413.594 304.624 426.53C308.018 439.458 307.51 453.696 301.91 466.816C301.145 468.602 300.288 470.369 299.336 472.107C299.332 472.113 299.336 472.121 299.343 472.122C304.497 472.697 309.167 473.651 313.436 474.906C322.937 477.695 330.456 481.958 336.879 486.82C342.13 490.794 346.794 494.553 351.129 498.042C368.941 512.384 381.061 522.14 402.834 521.527C402.841 521.527 402.845 521.521 402.844 521.515C402.408 519.511 402.38 517.394 402.788 515.251C404.163 508.004 410.497 500.373 422.685 495.765C431.915 492.278 440.549 493.555 446.078 497.209C448.293 498.674 450.028 500.526 451.133 502.622C452.266 504.769 452.738 507.165 452.39 509.653C451.712 514.5 447.909 519.647 439.789 523.846C432.014 527.871 423.822 528.473 418.658 526.675C416.818 526.035 415.312 525.077 414.27 523.846C414.268 523.844 414.265 523.842 414.261 523.843C412.034 524.2 409.894 524.475 407.836 524.668C407.829 524.668 407.825 524.677 407.829 524.683C408.681 525.963 409.814 527.111 411.206 528.065C416.773 531.882 426.443 532.715 439.393 527.318C443.956 525.416 447.495 522.59 449.99 519.105C452.59 515.478 454.084 511.106 454.441 506.309C456.908 473.219 447.632 387.47 447.605 387.222C447.51 386.288 448.189 385.452 449.126 385.357M449.126 385.357C449.227 385.346 449.031 385.352 449.126 385.357ZM449.126 385.357C466.645 386.623 484.687 384.001 501.522 378.422C519.363 372.508 536.183 363.263 550.639 351.773C551.377 351.188 552.451 351.31 553.039 352.045C553.294 352.366 553.416 352.749 553.41 353.128C553.56 355.913 556.762 414.735 557.123 447.963C557.123 447.969 557.129 447.973 557.135 447.972C563.158 446.587 569.938 445.629 577.14 445.065C600.873 443.209 629.364 445.652 650.588 451.314C650.595 451.316 650.602 451.309 650.599 451.301C645.664 438.01 642.217 421.546 642.444 406.278C642.674 390.877 646.635 376.631 656.526 367.868C669.321 356.535 678.104 348.023 683.443 340.992C686.019 337.599 687.773 334.58 688.776 331.761C688.777 331.756 688.776 331.751 688.771 331.749C683.365 328.687 679.071 324.942 676.67 321.927C675.894 320.947 675.292 320.02 674.899 319.195C673.825 316.937 674.049 315.136 675.104 313.842C675.931 312.832 677.227 312.241 678.766 312.071C680.085 311.924 681.627 312.086 683.192 312.553C687.45 313.826 692.067 317.435 692.999 323.376C693.344 325.575 693.294 327.773 692.816 330.037C692.815 330.042 692.818 330.046 692.822 330.048C693.896 330.574 695.007 331.07 696.15 331.52C703.729 334.505 712.72 335.545 721.349 331.465C723.355 330.517 725.352 329.288 727.315 327.738C729.101 326.329 730.715 324.788 732.161 323.148C739.31 315.035 742.252 304.532 742.389 294.772C742.467 289.422 741.707 284.313 740.343 279.966C740.342 279.962 740.338 279.959 740.334 279.959C739.949 279.942 739.56 279.918 739.168 279.889C733.546 279.46 727.316 277.773 722.084 275.227C718.447 273.452 715.26 271.248 713.045 268.728C710.941 266.336 710.165 264.311 710.375 262.698C710.569 261.211 711.476 260.144 712.905 259.484C714.029 258.963 715.499 258.717 717.181 258.74C722.479 258.808 730.541 261.547 736.385 266.656C737.144 267.32 737.877 268.099 738.575 268.975C740.197 271.014 741.615 273.604 742.76 276.583C742.761 276.586 742.765 276.589 742.769 276.589C746.342 276.498 749.359 275.739 751.164 274.165C751.674 273.722 752.085 273.202 752.376 272.608C754.221 268.849 754.179 263.867 754.121 256.906C754.043 247.637 753.938 235.008 758.105 216.877C761.45 202.326 769.062 192.73 778.296 186.864C790.022 179.415 804.337 178.042 815.81 180.184C831.845 183.178 836.095 175.974 845.474 160.074C846.957 157.564 848.563 154.839 850.389 151.858L852.919 147.728C867.097 124.648 891.558 84.8275 892.02 69.568C892.112 66.5911 891.465 63.7196 890.33 61.0747C890.329 61.0709 890.325 61.0686 890.321 61.0687C886.709 61.1622 882.775 60.4154 879.189 59.1642C876.618 58.268 874.207 57.1089 872.222 55.8266C870.136 54.4793 868.482 52.9611 867.535 51.4146C866.338 49.4593 866.175 47.4578 867.446 45.6009C868.375 44.2426 869.721 43.4435 871.334 43.138C873.668 42.6993 876.592 43.3524 879.583 44.8583C882.421 46.2921 885.374 48.5136 887.934 51.2958C889.632 53.1387 891.168 55.2379 892.401 57.5272C892.403 57.5309 892.408 57.533 892.412 57.5323C894.408 57.2184 896.14 56.5035 897.384 55.2777C900.195 52.5071 900.125 46.5925 898.517 40.8143C898.516 40.8097 898.512 40.8066 898.507 40.807C894.79 41.0849 891.01 40.568 887.934 39.4552C885.92 38.7269 884.169 37.731 882.888 36.5216C881.468 35.1825 880.603 33.5755 880.528 31.7628C880.449 29.7671 881.333 27.6275 883.494 25.4783C886.126 22.8597 889.015 22.7216 891.803 24.2208C893.392 25.0755 894.91 26.4891 896.274 28.2697C897.58 29.9707 898.776 32.0398 899.78 34.2849C900.181 35.1803 900.555 36.1084 900.891 37.0538C900.893 37.0585 900.898 37.0613 900.903 37.0603C902.175 36.7982 903.407 36.4121 904.548 35.8886C907.734 34.4273 908.696 30.1721 908.494 25.5603C908.494 25.5558 908.49 25.5519 908.486 25.551C908.066 25.4626 907.654 25.3489 907.26 25.2095C905.924 24.7448 904.727 24.0022 903.714 23.0492C902.699 22.0585 901.772 20.7417 901.215 19.361C900.174 16.7734 900.048 13.6143 901.204 10.3161C901.716 8.85937 902.51 8.04389 903.494 7.7727C905.249 7.38502 907.12 8.89347 908.493 11.5801C909.567 13.6799 910.56 16.6077 911.192 19.7537C911.363 20.5925 911.496 21.4455 911.61 22.3088C911.611 22.3142 911.616 22.318 911.621 22.3174C912.394 22.2254 913.2 22.0192 914.031 21.6865C921.371 18.7572 924.205 2.93403 924.212 2.88948C924.374 1.96321 925.259 1.34265 926.189 1.50337C926.359 1.53372 926.516 1.58671 926.662 1.65917L941.046 7.63533C941.915 7.99773 942.325 8.99334 941.961 9.85914C941.883 10.0458 941.776 10.2084 941.646 10.35C941.622 10.3764 932.554 20.2629 934.632 26.6384C934.634 26.6443 934.64 26.647 934.646 26.6441C935.857 25.9925 937.151 25.4534 938.467 25.0421C943.029 23.6198 947.979 23.75 951.056 26.2027C952.704 27.5159 953.293 28.8603 953.097 30.1419C952.881 31.5633 951.737 32.6281 950.036 33.3071C948.731 33.8295 947.004 34.1527 945.15 34.2416C941.271 34.4238 936.678 33.5434 933.838 31.2418C933.835 31.2388 933.83 31.2388 933.826 31.2418C932.522 32.2937 931.501 33.5124 930.965 34.8291C930.325 36.3957 930.391 38.1709 931.546 40.0239C932.908 42.2109 935.212 44.5484 937.891 46.7178C937.894 46.7199 937.897 46.7206 937.9 46.7197C940.026 46.1363 942.174 45.7883 944.23 45.7126C949.656 45.5151 954.476 47.2208 956.785 51.4922C957.94 53.6264 958.231 55.2557 957.85 56.4445C957.29 57.9633 955.904 58.7388 954.027 58.6739C952.735 58.6273 951.102 58.2073 949.292 57.5046C945.717 56.1104 941.227 53.5135 937.224 50.4844C937.222 50.4823 937.218 50.4818 937.215 50.4829C936.739 50.6458 936.263 50.8212 935.791 51.009C932.972 52.1326 930.328 53.7001 928.234 55.5809C924.941 58.5385 923.032 62.2809 924.103 66.2379C924.38 67.2594 924.781 68.2344 925.284 69.164C925.286 69.1676 925.289 69.1696 925.293 69.1692C926.131 69.0911 926.97 69.0381 927.813 69.0131C933.76 68.8399 939.734 70.0393 944.017 72.5616C945.902 73.6746 947.483 75.0539 948.618 76.6962C950.002 78.7002 950.257 80.369 949.676 81.6898C949.034 83.146 947.508 83.9245 945.439 84.083C943.824 84.2055 941.78 83.9523 939.572 83.3495C934.148 81.8671 927.49 78.2018 923.582 72.8008C923.58 72.7978 923.576 72.7963 923.572 72.7968C919.789 73.3858 916.238 74.6081 913.517 76.4749C911.985 77.5254 910.722 78.7881 909.852 80.2513C906.62 85.6854 884.988 138.566 862.656 193.154L859.935 199.805C859.933 199.809 859.935 199.815 859.939 199.817C867.732 204.305 876.027 210.965 883.09 220.843C898.534 242.443 888.324 266.266 878.933 288.187C876.021 294.98 873.19 301.587 871.264 307.866C870.573 310.119 870.033 312.286 869.618 314.356C869.618 314.359 869.619 314.362 869.621 314.364C874.425 319.807 877.436 327.882 876.689 334.007C876.256 337.582 875.216 339.789 873.931 340.759C872.569 341.789 871.097 341.712 869.696 340.641C868.717 339.892 867.792 338.568 867.056 336.773C865.305 332.515 864.328 324.984 865.948 315.442C865.949 315.439 865.948 315.435 865.945 315.433C864.276 313.81 862.417 312.568 860.475 311.938C858.477 311.288 856.362 311.291 854.253 312.206C850.054 314.032 845.771 319.361 842.114 330.051C835.505 349.368 831.178 364.013 830.732 374.67C830.464 381.063 831.636 385.976 834.621 389.597C834.625 389.602 834.632 389.602 834.636 389.598C837.16 386.878 840.173 384.962 843.449 384.27C845.028 383.935 846.662 383.884 848.317 384.161C852.988 384.942 855.98 387.676 857.074 390.596C857.629 392.069 857.71 393.603 857.3 394.995C856.879 396.426 855.949 397.693 854.495 398.585C851.758 400.267 847.05 400.555 840.305 397.72C838.27 396.864 836.499 395.859 834.972 394.701C834.967 394.698 834.961 394.699 834.958 394.704C832.95 397.748 831.486 401.477 830.82 405.425C830.264 408.728 830.266 412.171 830.972 415.484C832.753 423.831 831.468 437.065 826.538 451.608C822.425 463.732 815.772 476.826 806.247 488.813C804.245 491.334 802.106 493.58 799.874 495.571C796.727 498.379 793.377 500.698 789.923 502.591C789.916 502.595 789.916 502.605 789.924 502.609C797.931 506.228 806.289 509.112 814.652 511.052C826.737 513.859 838.824 514.688 849.858 512.899C873.132 508.145 885.912 495.495 899.778 481.733C907.125 474.438 914.788 466.833 924.489 459.857C929.52 456.241 934.562 452.892 939.454 449.767C939.46 449.764 939.46 449.754 939.454 449.751C934.238 446.536 930.95 441.019 931.013 432.802M931.013 432.802C931.009 432.711 931.001 432.895 931.013 432.802ZM931.013 432.802C931.083 432.24 931.19 431.364 931.304 430.724C933.323 419.292 940.39 410.776 949.206 405.409C957.964 400.079 968.483 397.858 977.469 398.983C977.979 399.045 978.532 399.131 979.123 399.235C981.839 399.711 984.423 400.552 986.695 401.715C989.723 403.266 992.244 405.406 993.871 408.046C995.537 410.752 996.257 413.954 995.624 417.535C995.324 419.251 994.716 421.037 993.764 422.88C990.843 428.534 984.866 433.424 977.54 436.873C971.731 439.608 965.035 441.46 958.335 442.084L958.331 442.085L955.024 444.111C952.417 445.704 949.704 447.363 946.92 449.096C946.912 449.101 946.914 449.112 946.923 449.114C949.444 449.692 952.225 449.885 955.145 449.721C959.551 449.474 964.279 448.411 968.925 446.65C982.931 441.336 995.994 429.703 997.095 414.899C1000.18 373.57 988.598 266.519 988.565 266.211C988.469 265.278 989.148 264.442 990.086 264.347C990.847 264.268 991.541 264.702 991.828 265.365M991.828 265.365C1001.82 285.695 1013.96 292.002 1023.48 296.941C1038.29 304.632 1047.21 309.269 1035.08 351.124C1031.03 365.125 1035.01 372.581 1045.45 375.704C1056.66 379.055 1075 377.822 1098.67 374.348C1128.55 369.963 1142.57 392.306 1158.09 417.03C1178.59 449.681 1201.79 486.643 1269.18 467.929C1270.08 467.68 1271.02 468.21 1271.28 469.115C1271.53 470.019 1270.99 470.956 1270.09 471.208C1200.26 490.599 1176.33 452.491 1155.2 418.827C1140.31 395.095 1126.84 373.649 1099.16 377.712C1075.03 381.253 1056.24 382.478 1044.47 378.96C1031.94 375.213 1027.09 366.472 1031.81 350.192C1043.16 311 1035.17 306.849 1021.9 299.958C1013.22 295.447 1002.43 289.847 992.854 274.296C992.849 274.287 992.834 274.289 992.835 274.299C995.484 300.448 1003.08 380.54 1000.5 415.154C999.29 431.433 985.214 444.121 970.136 449.84C965.191 451.715 960.108 452.848 955.323 453.118C950.877 453.366 946.684 452.862 943.073 451.517C943.07 451.516 943.067 451.517 943.064 451.518C937.691 454.918 932.102 458.596 926.491 462.632C916.992 469.463 909.435 476.963 902.191 484.155C887.958 498.281 874.888 511.254 850.612 516.223M991.828 265.365C991.879 265.482 991.915 265.595 991.937 265.719C991.939 265.731 991.925 265.734 991.922 265.722L991.828 265.365ZM850.612 516.223C850.543 516.241 850.687 516.21 850.612 516.223ZM524.583 482.498C525.6 483.334 526.966 483.81 528.578 483.905C531.869 484.097 536.433 482.652 541.18 479.377C547.19 475.228 550.768 468.604 551.357 463.06C551.574 460.887 551.346 458.838 550.638 457.107C550.152 455.924 549.45 454.889 548.525 454.054C548.519 454.049 548.521 454.04 548.528 454.037C550.157 453.422 551.894 452.854 553.728 452.333C553.734 452.331 553.741 452.336 553.741 452.342C553.748 454.21 553.742 455.968 553.723 457.598C553.66 462.853 553.485 466.667 552.222 469.853C550.98 472.987 548.61 475.708 544.133 478.911C535.683 484.957 529.424 486.23 525.456 484.774C523.596 484.093 522.246 482.776 521.431 481.078C520.571 479.278 520.277 477.027 520.584 474.6C521.376 468.349 526.1 461.112 535.186 457.1C535.88 456.793 536.544 456.526 537.176 456.302C537.187 456.299 537.194 456.313 537.185 456.32C534.564 458.399 532.658 460.771 531.606 463.457L531.604 463.461C529.851 465.168 528.039 467.245 526.256 469.695C523.582 473.374 522.542 476.424 522.709 478.725C522.819 480.265 523.56 481.602 524.583 482.498ZM524.583 482.498C524.54 482.462 524.62 482.537 524.583 482.498ZM535.25 473.786C534.129 471.053 533.845 468.593 534.28 466.401C534.349 466.045 534.441 465.694 534.549 465.349L534.552 465.345C536.612 463.425 538.54 462.108 540.162 461.37C541.125 460.932 541.927 460.719 542.53 460.724C542.803 460.728 542.979 460.767 543.03 460.841C543.104 460.945 543.133 461.155 543.118 461.475C542.849 465.804 540.676 469.83 538.382 472.187C537.633 472.96 536.891 473.526 536.245 473.833C535.847 474.023 535.551 474.103 535.405 474.046C535.403 474.045 535.401 474.043 535.4 474.042L535.25 473.786ZM535.25 473.786C535.311 473.932 535.221 473.762 535.25 473.786ZM760.236 328.678C759.923 329.561 760.392 330.535 761.281 330.843C761.313 330.854 772.849 335.052 778.19 325.216C779.678 322.478 779.865 319.924 779.063 317.942C778.535 316.632 777.594 315.588 776.33 314.902C775.16 314.269 773.665 313.953 772.014 314.033L771.718 314.052C771.71 314.053 771.705 314.045 771.709 314.038C776.581 304.606 783.299 291.461 791.074 275.837C805.868 246.116 829.778 201.385 833.658 194.138C833.66 194.134 833.663 194.133 833.667 194.133C836.679 194.509 845.482 195.994 855.623 201.286C855.628 201.288 855.63 201.293 855.628 201.298C834.302 253.416 813.264 304.699 807.844 315.529C805.621 319.974 803.428 324.13 801.436 327.93C793.062 343.823 787.903 353.613 792.754 361.599C794.637 364.705 795.884 365.588 797.314 364.728C798.323 364.121 798.489 362.923 798.742 361.14C799.239 357.644 800.206 350.835 806.969 346.64C807.854 346.092 807.943 345.384 808.059 345.568C808.722 346.625 806.644 352.63 804.016 360.229C800.066 371.646 794.957 386.42 796.276 396.704C796.277 396.709 796.275 396.713 796.27 396.714C787.957 400.246 776.905 404.652 760.962 407.178C744.19 409.836 731.33 398.145 723.843 385.011C721.365 380.662 719.474 376.166 718.224 371.98C716.986 367.832 716.377 363.999 716.44 360.933C716.509 357.588 717.483 355.271 719.13 354.866L720.065 354.633C720.074 354.631 720.081 354.639 720.077 354.647C719.087 356.67 718.662 359.5 720.866 363.13C722.602 365.987 725.092 366.087 728.103 364.273C733.29 361.149 740.448 351.197 747.467 341.445C752.058 335.066 756.59 328.765 760.342 324.678C761.669 323.234 762.959 322.035 764.201 321.053C764.209 321.047 764.221 321.057 764.216 321.066C761.737 325.811 760.247 328.656 760.236 328.678ZM760.236 328.678C760.264 328.595 760.195 328.753 760.236 328.678ZM262.998 483.203C263.939 488.932 264.718 493.68 264.956 497.783C264.956 497.787 264.954 497.791 264.95 497.793C259.526 500.041 253.783 501.683 247.852 502.806C227.858 506.586 210.261 502.357 196.758 493.177C189.678 488.364 183.709 482.177 179.104 475.061C174.499 467.948 171.26 459.909 169.64 451.4C166.361 434.169 169.694 414.963 181.667 397.451C201.232 372.589 215.575 359.206 227.82 347.783C230.284 345.486 232.663 343.265 234.982 341.05C234.988 341.044 234.997 341.047 234.999 341.055C237.341 354.529 240.107 368.753 243.013 383.085C243.014 383.091 243.01 383.097 243.004 383.097C238.228 383.56 233.487 384.516 228.904 385.919C214.472 390.336 201.524 399.317 194.246 411.131C192.736 413.602 191.533 416.195 190.622 418.86C187.142 429.046 187.805 440.475 191.596 450.722C195.387 460.97 202.313 470.067 211.36 475.595C213.801 477.088 216.409 478.323 219.152 479.253C227.887 482.215 237.343 482.283 246.298 480.309C251.047 479.26 255.67 477.63 259.971 475.551L259.976 475.55C260.541 475.575 261.115 475.596 261.693 475.615C261.697 475.615 261.701 475.618 261.702 475.623C262.139 478.089 262.55 480.488 262.933 482.818L262.998 483.203ZM266.369 482.652C267.227 487.882 267.962 492.348 268.304 496.29C268.305 496.297 268.312 496.301 268.318 496.298C269.789 495.6 271.235 494.855 272.65 494.058C279.548 490.179 285.745 485.102 290.9 478.632C291.833 477.461 292.711 476.268 293.532 475.058C293.537 475.051 293.532 475.043 293.525 475.042C288.905 474.788 283.902 474.828 278.47 475.219C273.733 475.559 269.314 475.705 265.194 475.678C265.188 475.678 265.183 475.683 265.184 475.69C265.579 477.939 265.953 480.135 266.304 482.263L266.369 482.652ZM249.703 415.44C253.875 435.42 257.888 454.621 260.918 471.237C260.918 471.241 260.916 471.245 260.912 471.247C260.367 471.542 259.816 471.83 259.257 472.113L259.252 472.114C254.556 471.865 250.314 471.368 246.491 470.658C234.657 468.456 226.895 464.222 222.017 459.143C217.218 454.148 215.187 448.304 214.791 442.788C214.597 440.084 214.796 437.441 215.252 435.008C216.235 429.772 219.398 424.773 223.76 420.638C228.43 416.213 234.438 412.794 240.625 411.106C243.331 410.371 245.97 409.95 248.52 409.811C248.525 409.81 248.529 409.814 248.53 409.818L249.703 415.44ZM253.043 414.757C257.126 434.306 261.054 453.117 264.053 469.4C264.054 469.407 264.062 469.41 264.068 469.407C266.241 468.045 268.282 466.558 270.157 464.97C278.155 458.197 281.825 449.998 282.169 442.021C282.406 436.534 281.077 431.145 278.512 426.392C275.936 421.624 272.118 417.495 267.388 414.545C262.981 411.796 257.772 410.071 252.023 409.798C252.016 409.797 252.011 409.803 252.012 409.81L253.043 414.757ZM229.906 389.166C234.385 387.795 239.024 386.872 243.686 386.443C243.691 386.442 243.695 386.446 243.696 386.451C245.056 393.123 246.444 399.804 247.824 406.435C247.825 406.441 247.821 406.446 247.815 406.447C245.195 406.624 242.495 407.076 239.726 407.824C232.991 409.659 226.46 413.37 221.402 418.165C216.547 422.769 213.013 428.399 211.891 434.377C211.39 437.059 211.172 439.987 211.39 443.013C211.839 449.243 214.132 455.843 219.553 461.485C224.894 467.043 233.256 471.651 245.863 473.999C247.951 474.389 250.158 474.715 252.488 474.973C252.498 474.974 252.5 474.989 252.49 474.992C250.231 475.795 247.912 476.465 245.559 476.984C237.176 478.836 228.355 478.78 220.251 476.033C217.759 475.19 215.381 474.058 213.139 472.689C204.754 467.567 198.322 459.102 194.791 449.554C191.26 440.005 190.629 429.387 193.851 419.958C194.692 417.498 195.865 415.017 197.23 412.78C204.065 401.687 216.233 393.35 229.906 389.166ZM231.866 273.761C230.747 287.935 233.173 309.46 237.261 334.041C237.263 334.049 237.272 334.052 237.278 334.046C245.911 325.409 253.918 316.016 262.749 301.459C265.581 296.788 267.618 292.215 268.951 287.838C270.386 283.122 271.02 278.65 270.991 274.539C270.912 262.917 266.928 255.868 261.529 252.628C259.125 251.185 256.427 250.49 253.674 250.477C250.877 250.465 248.009 251.149 245.316 252.469C238.439 255.826 232.694 263.28 231.866 273.761ZM269.197 411.663C264.081 408.474 258.001 406.525 251.3 406.368C251.295 406.368 251.291 406.364 251.29 406.36C249.899 399.685 248.502 392.948 247.13 386.228C247.129 386.222 247.134 386.216 247.14 386.216C255.356 385.896 263.541 387.145 270.966 390.24C274.841 391.88 278.461 394.062 281.771 396.679C291.211 404.138 298.105 415.138 301.319 427.376C304.534 439.623 304.065 453.095 298.775 465.48C297.865 467.607 296.813 469.705 295.612 471.762C295.61 471.766 295.607 471.767 295.603 471.767C290.324 471.384 284.561 471.378 278.239 471.831C273.852 472.146 269.748 472.291 265.911 472.283C265.901 472.283 265.898 472.27 265.906 472.265C268.205 470.821 270.366 469.243 272.356 467.56C281.158 460.106 285.2 451.023 285.584 442.156C285.847 436.055 284.371 430.06 281.515 424.774C278.67 419.503 274.442 414.932 269.197 411.663ZM412.846 518.167C412.679 519.023 412.661 519.832 412.776 520.598C412.777 520.603 412.773 520.609 412.768 520.609C410.525 520.942 408.38 521.182 406.322 521.337C406.317 521.338 406.312 521.335 406.311 521.33C405.853 519.616 405.789 517.761 406.154 515.868C407.33 509.679 412.967 503.074 423.906 498.942C432.022 495.877 439.495 496.918 444.203 500.031C445.935 501.176 447.28 502.601 448.118 504.187C448.925 505.717 449.262 507.42 449.017 509.181C448.484 513.004 445.237 517.188 438.23 520.814C431.313 524.394 424.186 524.986 419.792 523.457C419.429 523.329 419.089 523.188 418.773 523.036C418.764 523.032 418.765 523.02 418.775 523.018C420.9 522.595 423.1 522.101 425.392 521.534C435.722 518.97 441.252 514.795 443.206 511.06C444.223 509.117 444.354 507.228 443.749 505.622C443.134 503.992 441.784 502.716 439.85 502.022C436.476 500.808 431.087 501.414 424.791 505.339C417.11 510.125 413.551 514.56 412.846 518.167ZM424.569 518.238C421.622 518.969 418.827 519.57 416.159 520.052C416.154 520.053 416.148 520.049 416.147 520.043C416.094 519.663 416.108 519.252 416.189 518.82C416.725 516.061 419.81 512.443 426.588 508.219C431.89 504.913 436.166 504.308 438.693 505.216C439.647 505.559 440.29 506.127 440.55 506.817C440.816 507.531 440.718 508.455 440.174 509.49C438.6 512.497 433.808 515.948 424.569 518.238ZM545.228 455.892C545.064 455.811 544.894 455.737 544.715 455.67C544.712 455.669 544.709 455.669 544.707 455.67C543.591 456.208 542.551 456.777 541.592 457.372C541.582 457.378 541.588 457.392 541.599 457.391C541.934 457.342 542.256 457.32 542.562 457.324C543.983 457.34 545.101 457.865 545.815 458.879C546.329 459.607 546.584 460.54 546.523 461.664C546.197 466.865 543.586 471.719 540.828 474.558C539.809 475.604 538.735 476.41 537.717 476.898C536.447 477.504 535.204 477.641 534.123 477.209C533.278 476.836 532.5 476.107 532.08 475.077C531.287 473.138 530.839 471.284 530.707 469.519C530.706 469.51 530.695 469.507 530.689 469.514C530.132 470.199 529.571 470.929 529.012 471.695C526.846 474.675 525.987 476.943 526.1 478.486C526.142 479.068 526.346 479.514 526.677 479.821C527.131 480.193 527.892 480.465 528.766 480.518C531.367 480.67 535.138 479.416 539.229 476.593C544.399 473.025 547.46 467.453 547.949 462.773C548.114 461.145 547.962 459.601 547.467 458.388C547.022 457.29 546.279 456.417 545.228 455.892ZM665.956 460.309C663.123 458.964 659.929 457.713 656.446 456.566C656.438 456.563 656.43 456.571 656.434 456.579C656.892 457.6 657.358 458.592 657.83 459.553C660.599 465.181 663.108 468.746 666.413 471.163C669.736 473.592 674.003 474.972 680.267 476.212C683.034 476.763 685.941 477.26 688.89 477.714C688.9 477.716 688.906 477.704 688.899 477.697C682.696 471.559 675.579 464.884 665.956 460.309ZM709.043 489.557C705.487 488.228 702.142 485.669 698.685 482.495C698.677 482.489 698.683 482.477 698.693 482.478C703.457 483.05 708.068 483.516 712.058 483.883C715.71 484.22 717.586 485.106 718.212 486.126C718.413 486.455 718.43 486.824 718.307 487.186C718.13 487.7 717.706 488.23 717.09 488.703C715.315 490.061 712.251 490.757 709.043 489.557ZM689.626 323.889C689.851 325.337 689.864 326.8 689.645 328.308C689.644 328.315 689.636 328.319 689.63 328.315C685.031 325.597 681.405 322.402 679.344 319.812C678.722 319.031 678.26 318.322 677.976 317.728C677.552 316.834 677.521 316.267 677.755 315.979C677.987 315.697 678.486 315.517 679.145 315.443C680.026 315.344 681.093 315.464 682.215 315.799C685.438 316.764 688.93 319.467 689.626 323.889ZM735.898 271.068C737.074 272.546 738.13 274.361 739.033 276.436C739.036 276.443 739.031 276.451 739.023 276.45C733.909 276.004 728.301 274.461 723.577 272.163C720.319 270.577 717.503 268.643 715.605 266.485C714.216 264.905 713.671 263.798 713.761 263.115C713.787 262.903 713.997 262.71 714.336 262.553C714.985 262.252 715.955 262.111 717.145 262.128C721.79 262.186 728.91 264.633 734.127 269.195C734.744 269.736 735.337 270.363 735.898 271.068ZM885.404 53.5782C886.55 54.8173 887.606 56.1858 888.529 57.6544C888.533 57.6612 888.528 57.6701 888.52 57.6696C885.842 57.5093 882.98 56.8704 880.307 55.9434C877.987 55.134 875.826 54.0995 874.063 52.9589C872.398 51.8835 871.113 50.7373 870.439 49.6335C869.953 48.8403 869.841 48.0968 870.248 47.5006C870.633 46.9435 871.223 46.6045 871.956 46.4676C873.547 46.1662 875.711 46.6952 878.037 47.8707C880.509 49.1187 883.111 51.0874 885.404 53.5782ZM896.648 35.6467C896.911 36.2339 897.161 36.8373 897.397 37.4477C897.399 37.4541 897.395 37.461 897.388 37.4613C894.461 37.574 891.523 37.124 889.087 36.2424C887.498 35.6688 886.155 34.9201 885.225 34.0424C884.434 33.2976 883.956 32.4598 883.92 31.596C883.876 30.5399 884.467 29.2913 885.891 27.873C887.26 26.5108 888.75 26.4286 890.173 27.1959C891.31 27.8054 892.459 28.9007 893.547 30.3208C894.695 31.8173 895.754 33.6494 896.648 35.6467ZM907.838 20.4084C907.935 20.8879 908.023 21.3771 908.101 21.8667C908.103 21.8744 908.095 21.8805 908.088 21.8776C907.322 21.5701 906.567 21.0547 905.991 20.5064C905.305 19.839 904.754 19.0171 904.38 18.0831C903.63 16.2183 903.555 13.8971 904.421 11.4235C904.517 11.1476 904.273 11.0795 904.36 11.0472C904.376 11.0434 904.798 11.8488 905.438 13.1027C906.376 14.9432 907.264 17.5567 907.838 20.4084ZM944.991 30.8313C942.223 30.9609 939.045 30.5149 936.923 29.2963C936.916 29.2923 936.916 29.2822 936.923 29.2787C937.744 28.8822 938.604 28.5433 939.477 28.2691C943.058 27.1559 946.795 27.1442 948.923 28.837C949.488 29.2888 949.724 29.5341 949.712 29.6199C949.698 29.7184 949.338 29.905 948.765 30.1327C947.799 30.5199 946.466 30.7625 944.991 30.8313ZM950.525 54.3072C947.839 53.2608 944.604 51.4968 941.513 49.389C941.506 49.3839 941.508 49.3724 941.517 49.3709C942.475 49.2134 943.426 49.1152 944.342 49.0775C948.521 48.9293 952.16 50.1064 953.771 53.0793C954.438 54.3066 954.671 55.0637 954.59 55.38C954.562 55.4602 954.452 55.2598 954.137 55.2486C953.242 55.2158 951.99 54.8767 950.525 54.3072ZM940.467 80.0533C936.201 78.8871 931.077 76.2379 927.621 72.4083C927.615 72.402 927.619 72.3919 927.628 72.3917C932.954 72.2397 938.542 73.2729 942.269 75.4693C943.748 76.3415 944.962 77.3865 945.799 78.5999C946.436 79.5222 946.651 80.0685 946.548 80.3037C946.464 80.4906 945.962 80.6171 945.179 80.6773C943.946 80.7701 942.304 80.5558 940.467 80.0533ZM795.544 361.813C795.215 362.011 795.35 361.814 795.526 361.447C795.529 361.44 795.539 361.439 795.543 361.445C795.66 361.61 795.742 361.693 795.544 361.813ZM808.241 405.998C804.793 405.713 801.587 403.679 800.166 398.748C800.165 398.744 800.167 398.738 800.172 398.736C808.742 395.072 814.103 392.893 819.079 396.009C820.583 396.952 821.076 398.055 820.864 399.125C820.533 400.792 818.84 402.57 816.538 403.923C814.113 405.348 811.08 406.232 808.241 405.998ZM772.184 317.421C771.426 317.461 770.594 317.621 769.699 317.915C769.696 317.916 769.694 317.918 769.693 317.92C767.238 322.652 765.412 326.126 764.365 328.113C764.361 328.119 764.365 328.126 764.372 328.128C767.206 328.625 772.412 328.713 775.184 323.604C776.154 321.817 776.33 320.287 775.891 319.201C775.667 318.646 775.256 318.193 774.694 317.89C774.047 317.54 773.193 317.366 772.184 317.421ZM870.225 335.466C868.836 332.083 868.007 326.328 868.883 318.943C868.884 318.933 868.896 318.93 868.901 318.938C872.024 323.469 873.842 329.15 873.302 333.576C872.993 336.133 872.354 337.453 871.774 337.916C871.771 337.919 871.766 337.919 871.762 337.916C871.268 337.532 870.732 336.699 870.225 335.466ZM841.635 394.562C839.897 393.833 838.39 392.967 837.091 391.961C837.087 391.957 837.086 391.95 837.09 391.946C839.163 389.694 841.582 388.121 844.157 387.574C845.32 387.326 846.529 387.292 847.759 387.496C851.088 388.052 853.166 389.854 853.879 391.755C854.171 392.535 854.222 393.326 854.018 394.014C853.826 394.667 853.392 395.251 852.707 395.673C850.806 396.841 847.203 396.904 841.635 394.562ZM765.953 506.083C771.096 505.715 776.559 504.606 781.938 502.533C781.946 502.53 781.947 502.519 781.939 502.515C779.652 501.341 777.403 500.112 775.199 498.831C763.095 491.796 753.134 490.341 746.784 491.66C744.686 492.095 743.019 492.835 741.846 493.766C740.823 494.575 740.21 495.525 740.06 496.508C739.884 497.674 740.346 498.996 741.534 500.32C741.847 500.67 742.211 501.007 742.612 501.324C746.819 504.639 755.691 506.818 765.953 506.083ZM944.095 435.4C943.928 439.027 946.071 441.613 951.567 442.195C951.576 442.196 951.58 442.208 951.572 442.213C948.732 443.951 945.779 445.764 942.758 447.661C942.755 447.663 942.752 447.663 942.749 447.661C937.676 445.212 934.373 440.426 934.43 432.843C934.503 432.278 934.584 431.756 934.665 431.291C936.491 420.936 942.937 413.198 950.984 408.298C959.087 403.367 968.783 401.309 977.045 402.343C977.594 402.414 978.095 402.486 978.536 402.564C980.895 402.977 983.144 403.711 985.13 404.728C987.626 406.006 989.685 407.731 990.967 409.812C992.208 411.832 992.74 414.23 992.262 416.936C992.022 418.299 991.519 419.758 990.72 421.307C988.157 426.266 982.756 430.634 976.073 433.78C972.914 435.269 969.482 436.479 965.933 437.347C965.922 437.35 965.916 437.335 965.925 437.329C977.506 429.912 985.292 423.658 985.366 416.956C985.434 410.529 982.325 407.938 977.649 407.888C971.948 407.826 963.671 412.262 956.818 417.861C949.908 423.506 944.322 430.473 944.095 435.4ZM981.953 416.922C981.884 423.124 971.596 429.924 957.232 438.749L957.227 438.751C955.796 438.862 954.369 438.913 952.949 438.897C948.967 438.702 947.412 437.403 947.498 435.555C947.678 431.634 952.725 425.598 958.981 420.484C965.295 415.323 972.735 411.236 977.614 411.288C980.247 411.316 981.996 412.924 981.953 416.922Z" stroke="black" stroke-width="2" stroke-linecap="round" stroke-linejoin="round"/>
</svg>
